# xmcd CD database file
# Copyright (C) 1995-1998 Ti Kan
#
# Track frame offsets:
#	150
#	26857
#	53085
#	74630
#	95972
#	118477
#	145237
#	165080
#	189900
#	210752
#	232857
#	254837
#	283382
#
# Disc length: 4526 seconds
#
# Revision: 3
# Processed by: cddbd v1.4b41PL2 Copyright (c) Steve Scherf et al.
# Submitted via: CDex 1.30Release
#
DISCID=c611ac0d
DTITLE=Santana - Supernatural
DYEAR=2001
DGENRE=Blues
TTITLE0=(Da Le) Yaleo
TTITLE1=Love of My Life feat. Dave Matthews
TTITLE2=Put Your Lights On feat. Everlast
TTITLE3=Africa Bamba
TTITLE4=Smooth feat. Rob Thomas
TTITLE5=Do You Like the Way feat. Lauryn Hill and Cee-Lo
TTITLE6=Maria Maria
TTITLE7=Migra
TTITLE8=Corazon Espinado feat. Mana
TTITLE9=Wishing It Was feat. Eagle-Eye Cherry
TTITLE10=El Farol
TTITLE11=Primavera
TTITLE12=The Calling feat. Eric Clapton
EXTD=YEAR: 2001 ID3G:   0
EXTT0=
EXTT1=
EXTT2=
EXTT3=
EXTT4=
EXTT5=
EXTT6=
EXTT7=
EXTT8=
EXTT9=
EXTT10=
EXTT11=
EXTT12=
PLAYORDER=
